HIERARCHY
ROOT Hips
{
	OFFSET 0.00 0.00 0.00
	CHANNELS 6 Xposition Yposition Zposition Xrotation Yrotation Zrotation
	JOINT Spine
	{
		OFFSET 0.00000 1.70439 2.55658
		CHANNELS 3 Xrotation Yrotation Zrotation
		JOINT Spine1
		{
			OFFSET 0.00000 0.59193 3.35699
			CHANNELS 3 Xrotation Yrotation Zrotation
			JOINT Spine2
			{
				OFFSET 0.00000 0.29710 3.39581
				CHANNELS 3 Xrotation Yrotation Zrotation
				JOINT Spine3
				{
					OFFSET 0.00000 0.00000 3.40878
					CHANNELS 3 Xrotation Yrotation Zrotation
					JOINT Neck
					{
						OFFSET 0.00000 -1.27828 8.94804
						CHANNELS 3 Xrotation Yrotation Zrotation
						JOINT Head
						{
							OFFSET 0.00000 -0.81390 4.61586
							CHANNELS 3 Xrotation Yrotation Zrotation
							End Site
							{
								OFFSET 0.00000 0.00001 5.51796
							}
						}
					}
					JOINT RightShoulder
					{
						OFFSET -1.18875 -1.98124 6.41925
						CHANNELS 3 Xrotation Yrotation Zrotation
						JOINT RightArm
						{
							OFFSET -5.90412 0.00000 0.00000
							CHANNELS 3 Xrotation Yrotation Zrotation
							JOINT RightForeArm
							{
								OFFSET -11.94674 0.00000 0.00000
								CHANNELS 3 Xrotation Yrotation Zrotation
								JOINT RightHand
								{
									OFFSET -10.17720 0.00000 0.00000
									CHANNELS 3 Xrotation Yrotation Zrotation
									JOINT RightHandEnd
									{
										OFFSET -2.84518 0.00000 0.00000
										CHANNELS 3 Xrotation Yrotation Zrotation
										End Site
										{
											OFFSET -2.84518 0.00000 0.00000
										}
									}
									JOINT RightHandThumb1
									{
										OFFSET -1.13807 -1.89679 -0.75871
										CHANNELS 3 Yrotation Xrotation Zrotation
										End Site
										{
											OFFSET -2.74823 -0.73639 0.00000
										}
									}
								}
							}
						}
					}
					JOINT LeftShoulder
					{
						OFFSET 1.18875 -1.98124 6.41925
						CHANNELS 3 Xrotation Yrotation Zrotation
						JOINT LeftArm
						{
							OFFSET 5.90412 0.00000 0.00000
							CHANNELS 3 Xrotation Yrotation Zrotation
							JOINT LeftForeArm
							{
								OFFSET 11.94674 0.00000 0.00000
								CHANNELS 3 Xrotation Yrotation Zrotation
								JOINT LeftHand
								{
									OFFSET 10.17720 0.00000 0.00000
									CHANNELS 3 Xrotation Yrotation Zrotation
									JOINT LeftHandEnd
									{
										OFFSET 2.84518 0.00000 0.00000
										CHANNELS 3 Xrotation Yrotation Zrotation
										End Site
										{
											OFFSET 2.84518 0.00000 0.00000
										}
									}
									JOINT LeftHandThumb1
									{
										OFFSET 1.13807 -1.89679 -0.75871
										CHANNELS 3 Yrotation Xrotation Zrotation
										End Site
										{
											OFFSET 2.74823 -0.73639 0.00000
										}
									}
								}
							}
						}
					}
				}
			}
		}
	}
	JOINT RightUpLeg
	{
		OFFSET -3.52662 0.00000 -1.03025
		CHANNELS 3 Xrotation Yrotation Zrotation
		JOINT RightLeg
		{
			OFFSET 0.00001 0.00000 -17.80159
			CHANNELS 3 Xrotation Yrotation Zrotation
			JOINT RightFoot
			{
				OFFSET 0.00001 0.00000 -16.85992
				CHANNELS 3 Xrotation Yrotation Zrotation
				JOINT RightToeBase
				{
					OFFSET 0.00000 -5.42953 -1.97619
					CHANNELS 3 Xrotation Yrotation Zrotation
					End Site
					{
						OFFSET 0.00000 -2.85300 -0.00000
					}
				}
			}
		}
	}
	JOINT LeftUpLeg
	{
		OFFSET 3.52662 0.00000 -1.03025
		CHANNELS 3 Xrotation Yrotation Zrotation
		JOINT LeftLeg
		{
			OFFSET 0.00001 0.00000 -17.80159
			CHANNELS 3 Xrotation Yrotation Zrotation
			JOINT LeftFoot
			{
				OFFSET 0.00001 0.00000 -16.85992
				CHANNELS 3 Xrotation Yrotation Zrotation
				JOINT LeftToeBase
				{
					OFFSET 0.00000 -5.42953 -1.97619
					CHANNELS 3 Xrotation Yrotation Zrotation
					End Site
					{
						OFFSET 0.00000 -2.85300 -0.00000
					}
				}
			}
		}
	}
}
MOTION
Frames: 18
Frame Time: 0.008342
 -0.9602 25.4829 37.9691 4.6683 0.1226 -176.5800 0.9354 -1.5655 -0.5322 0.4928 -0.3756 -0.1220 2.2726 -2.1631 -0.2356 0.2580 0.1004 0.6058 5.6008 0.1913 -1.0789 1.3845 0.9875 1.3430 2.0094 5.9329 -3.3836 -3.9969 -1.7112 -0.1522 0.0000 0.0000 10.8817 -1.9432 21.6727 -12.5812 0.0000 -0.0000 0.0000 0.0000 -0.0000 0.0000 0.7192 -5.1548 -0.0910 -0.2766 11.5776 2.8706 -0.0000 -0.0000 -14.1548 -5.4913 -14.8379 4.5838 0.0000 -0.0000 -0.0000 0.0000 -0.0000 0.0000 4.9651 6.0274 -40.2641 12.6806 0.0000 0.0000 -9.6950 -8.7905 -1.8386 1.9397 0.0000 0.0000 3.1457 -7.2065 10.7562 10.6558 0.0000 0.0000 -6.2462 15.2072 10.5433 -6.4754 0.0000 -0.0000
 -0.9593 25.5025 37.9680 4.6403 0.1029 -176.6455 0.9149 -1.5710 -0.5345 0.4886 -0.3733 -0.1225 2.2404 -2.1608 -0.2385 0.2538 0.1009 0.5973 5.6206 0.1882 -1.0433 1.3747 0.9891 1.3680 1.9492 5.9641 -3.3402 -3.9671 -1.6312 -0.1365 0.0000 0.0000 10.8864 -1.9078 21.6752 -12.5780 -0.0000 -0.0000 -0.0000 -0.0000 -0.0000 -0.0000 0.6603 -5.1227 -0.0541 -0.2757 11.5099 2.8831 -0.0000 -0.0000 -14.1633 -5.4868 -14.8647 4.5897 -0.0000 -0.0000 -0.0000 0.0000 -0.0000 0.0000 4.9578 6.0010 -40.2058 12.6588 0.0000 0.0000 -9.7042 -8.7779 -1.8518 1.9461 0.0000 0.0000 3.1762 -7.2163 10.7911 10.6279 0.0000 0.0000 -6.2900 15.1921 10.5861 -6.4616 0.0000 -0.0000
 -0.9583 25.5282 37.9666 4.6096 0.0823 -176.7223 0.8934 -1.5744 -0.5380 0.4822 -0.3706 -0.1236 2.2010 -2.1554 -0.2453 0.2480 0.1018 0.5861 5.6439 0.1850 -1.0008 1.3664 0.9911 1.4003 1.8743 6.0049 -3.2885 -3.9254 -1.5281 -0.1177 0.0000 0.0000 10.8945 -1.8573 21.6870 -12.5725 -0.0000 0.0000 -0.0000 -0.0000 -0.0000 0.0000 0.5864 -5.0851 -0.0108 -0.2748 11.4230 2.9000 -0.0000 -0.0000 -14.1751 -5.4800 -14.8996 4.5977 0.0000 -0.0000 -0.0000 0.0000 0.0000 0.0000 4.9584 5.9720 -40.1477 12.6299 0.0000 0.0000 -9.7150 -8.7672 -1.8578 1.9534 0.0000 0.0000 3.2216 -7.2245 10.8281 10.5894 0.0000 0.0000 -6.3430 15.1750 10.6412 -6.4431 0.0000 -0.0000
 -0.9566 25.5598 37.9652 4.5753 0.0564 -176.8069 0.8675 -1.5798 -0.5409 0.4762 -0.3667 -0.1257 2.1541 -2.1478 -0.2578 0.2414 0.1033 0.5735 5.6696 0.1812 -0.9549 1.3595 0.9947 1.4391 1.7873 6.0548 -3.2342 -3.8718 -1.4037 -0.0945 0.0000 0.0000 10.9060 -1.7912 21.7075 -12.5639 -0.0000 0.0000 -0.0000 0.0000 -0.0000 0.0000 0.4987 -5.0443 0.0351 -0.2722 11.3189 2.9198 -0.0000 -0.0000 -14.1885 -5.4724 -14.9431 4.6052 -0.0000 -0.0000 0.0000 -0.0000 -0.0000 0.0000 4.9670 5.9340 -40.0897 12.5896 0.0000 0.0000 -9.7244 -8.7597 -1.8595 1.9605 0.0000 0.0000 3.2779 -7.2375 10.8709 10.5438 0.0000 0.0000 -6.4042 15.1578 10.7007 -6.4216 0.0000 -0.0000
 -0.9547 25.5966 37.9637 4.5391 0.0293 -176.8940 0.8396 -1.5837 -0.5466 0.4681 -0.3625 -0.1264 2.1025 -2.1380 -0.2751 0.2338 0.1063 0.5566 5.6975 0.1774 -0.9067 1.3550 1.0001 1.4827 1.6898 6.1125 -3.1759 -3.8030 -1.2587 -0.0711 0.0000 0.0000 10.9209 -1.7134 21.7341 -12.5494 0.0000 0.0000 0.0000 -0.0000 0.0000 0.0000 0.4011 -5.0017 0.0819 -0.2674 11.1991 2.9419 -0.0000 -0.0000 -14.2021 -5.4638 -14.9916 4.6106 -0.0000 -0.0000 0.0000 0.0000 0.0000 -0.0000 4.9865 5.8916 -40.0437 12.5389 0.0000 0.0000 -9.7317 -8.7576 -1.8494 1.9663 0.0000 0.0000 3.3446 -7.2512 10.9115 10.4913 0.0000 0.0000 -6.4713 15.1415 10.7666 -6.3974 0.0000 -0.0000
 -0.9523 25.6384 37.9624 4.5129 0.0019 -176.9795 0.8189 -1.5873 -0.5519 0.4616 -0.3576 -0.1287 2.0458 -2.1250 -0.2982 0.2255 0.1107 0.5397 5.7259 0.1741 -0.8601 1.3550 1.0073 1.5287 1.5894 6.1808 -3.1237 -3.7234 -1.1023 -0.0426 0.0000 0.0000 10.9353 -1.6243 21.7668 -12.5267 -0.0000 -0.0000 -0.0000 -0.0000 -0.0000 0.0000 0.2977 -4.9625 0.1240 -0.2600 11.0697 2.9652 -0.0000 -0.0000 -14.2148 -5.4562 -15.0419 4.6121 -0.0000 -0.0000 -0.0000 0.0000 0.0000 0.0000 5.0310 5.8447 -40.0160 12.4746 0.0000 0.0000 -9.7341 -8.7634 -1.8241 1.9702 0.0000 0.0000 3.4339 -7.2656 10.9520 10.4297 0.0000 0.0000 -6.5395 15.1275 10.8329 -6.3732 0.0000 -0.0000
 -0.9497 25.6834 37.9612 4.4829 -0.0252 -177.0589 0.7925 -1.5908 -0.5581 0.4533 -0.3517 -0.1304 1.9893 -2.1088 -0.3261 0.2170 0.1167 0.5202 5.7542 0.1716 -0.8171 1.3574 1.0173 1.5754 1.4855 6.2534 -3.0755 -3.6311 -0.9326 -0.0161 0.0000 0.0000 10.9511 -1.5287 21.8003 -12.4952 0.0000 0.0000 0.0000 -0.0000 -0.0000 0.0000 0.1923 -4.9270 0.1597 -0.2506 10.9334 2.9889 -0.0000 -0.0000 -14.2253 -5.4462 -15.0926 4.6105 0.0000 -0.0000 -0.0000 0.0000 -0.0000 0.0000 5.0827 5.7956 -40.0065 12.4015 0.0000 0.0000 -9.7327 -8.7763 -1.7870 1.9716 0.0000 0.0000 3.5240 -7.2807 10.9873 10.3669 0.0000 0.0000 -6.6079 15.1166 10.8988 -6.3508 0.0000 -0.0000
 -0.9469 25.7305 37.9602 4.4517 -0.0503 -177.1279 0.7622 -1.5935 -0.5653 0.4428 -0.3454 -0.1312 1.9356 -2.0894 -0.3574 0.2080 0.1252 0.4978 5.7818 0.1696 -0.7800 1.3623 1.0306 1.6206 1.3822 6.3283 -3.0336 -3.5288 -0.7541 0.0066 0.0000 0.0000 10.9669 -1.4292 21.8307 -12.4554 0.0000 0.0000 -0.0000 -0.0000 -0.0000 -0.0000 0.0899 -4.8985 0.1866 -0.2397 10.7957 3.0110 -0.0000 -0.0000 -14.2326 -5.4360 -15.1408 4.6041 0.0000 -0.0000 -0.0000 -0.0000 -0.0000 -0.0000 5.1432 5.7461 -40.0202 12.3200 0.0000 0.0000 -9.7262 -8.7968 -1.7361 1.9698 0.0000 0.0000 3.6135 -7.2953 11.0160 10.3046 0.0000 0.0000 -6.6735 15.1094 10.9609 -6.3323 0.0000 -0.0000
 -0.9439 25.7790 37.9595 4.4291 -0.0736 -177.1840 0.7356 -1.5973 -0.5716 0.4345 -0.3386 -0.1329 1.8830 -2.0657 -0.3931 0.2000 0.1346 0.4774 5.8076 0.1696 -0.7516 1.3706 1.0464 1.6608 1.2859 6.4090 -3.0068 -3.4213 -0.5771 0.0300 0.0000 0.0000 10.9788 -1.3303 21.8590 -12.4072 0.0000 0.0000 0.0000 -0.0000 -0.0000 -0.0000 -0.0067 -4.8801 0.1995 -0.2264 10.6625 3.0316 -0.0000 -0.0000 -14.2353 -5.4260 -15.1824 4.5925 -0.0000 -0.0000 0.0000 0.0000 -0.0000 -0.0000 5.2234 5.6947 -40.0600 12.2271 0.0000 0.0000 -9.7122 -8.8253 -1.6706 1.9646 0.0000 0.0000 3.7114 -7.3106 11.0402 10.2428 0.0000 0.0000 -6.7329 15.1070 11.0139 -6.3192 0.0000 -0.0000
 -0.9408 25.8276 37.9592 4.4087 -0.0945 -177.2249 0.7079 -1.6016 -0.5777 0.4256 -0.3318 -0.1344 1.8346 -2.0390 -0.4307 0.1928 0.1461 0.4562 5.8313 0.1712 -0.7320 1.3811 1.0649 1.6948 1.1969 6.4915 -2.9929 -3.3121 -0.4027 0.0493 0.0000 0.0000 10.9880 -1.2340 21.8812 -12.3530 0.0000 -0.0000 0.0000 -0.0000 0.0000 0.0000 -0.0938 -4.8728 0.1996 -0.2120 10.5376 3.0486 -0.0000 -0.0000 -14.2328 -5.4151 -15.2173 4.5767 0.0000 -0.0000 -0.0000 -0.0000 -0.0000 0.0000 5.3136 5.6429 -40.1247 12.1260 0.0000 0.0000 -9.6913 -8.8601 -1.5931 1.9565 0.0000 0.0000 3.8056 -7.3264 11.0590 10.1866 0.0000 0.0000 -6.7853 15.1092 11.0561 -6.3135 0.0000 -0.0000
 -0.9377 25.8754 37.9592 4.3931 -0.1138 -177.2507 0.6810 -1.6078 -0.5830 0.4168 -0.3263 -0.1360 1.7917 -2.0070 -0.4705 0.1866 0.1579 0.4378 5.8528 0.1749 -0.7224 1.3935 1.0856 1.7210 1.1169 6.5752 -2.9940 -3.2037 -0.2347 0.0654 0.0000 0.0000 10.9922 -1.1443 21.8968 -12.2946 -0.0000 0.0000 -0.0000 0.0000 -0.0000 0.0000 -0.1693 -4.8775 0.1853 -0.1973 10.4246 3.0616 -0.0000 -0.0000 -14.2251 -5.4024 -15.2437 4.5591 -0.0000 -0.0000 -0.0000 0.0000 -0.0000 0.0000 5.4148 5.5896 -40.2114 12.0165 0.0000 0.0000 -9.6630 -8.8999 -1.5060 1.9456 0.0000 0.0000 3.8968 -7.3439 11.0748 10.1375 0.0000 0.0000 -6.8299 15.1158 11.0845 -6.3153 0.0000 -0.0000
 -0.9349 25.9217 37.9595 4.3797 -0.1292 -177.2618 0.6533 -1.6135 -0.5883 0.4076 -0.3204 -0.1371 1.7547 -1.9748 -0.5085 0.1814 0.1724 0.4178 5.8725 0.1809 -0.7204 1.4067 1.1080 1.7391 1.0451 6.6602 -3.0054 -3.0996 -0.0760 0.0747 0.0000 0.0000 10.9925 -1.0640 21.9052 -12.2356 0.0000 0.0000 -0.0000 -0.0000 -0.0000 -0.0000 -0.2322 -4.8938 0.1601 -0.1830 10.3254 3.0690 -0.0000 -0.0000 -14.2121 -5.3891 -15.2615 4.5405 0.0000 -0.0000 -0.0000 -0.0000 -0.0000 0.0000 5.5213 5.5389 -40.3168 11.9033 0.0000 0.0000 -9.6300 -8.9428 -1.4124 1.9335 0.0000 0.0000 3.9802 -7.3601 11.0857 10.0976 0.0000 0.0000 -6.8670 15.1254 11.1016 -6.3245 0.0000 -0.0000
 -0.9323 25.9662 37.9601 4.3681 -0.1421 -177.2606 0.6257 -1.6197 -0.5928 0.3972 -0.3150 -0.1384 1.7238 -1.9415 -0.5443 0.1771 0.1881 0.3978 5.8903 0.1890 -0.7254 1.4205 1.1313 1.7489 0.9808 6.7458 -3.0266 -3.0032 0.0725 0.0779 0.0000 0.0000 10.9885 -0.9910 21.9047 -12.1803 -0.0000 0.0000 -0.0000 -0.0000 -0.0000 0.0000 -0.2826 -4.9211 0.1254 -0.1698 10.2412 3.0705 -0.0000 -0.0000 -14.1945 -5.3717 -15.2718 4.5247 0.0000 -0.0000 -0.0000 0.0000 0.0000 0.0000 5.6307 5.4895 -40.4356 11.7872 0.0000 0.0000 -9.5930 -8.9869 -1.3155 1.9199 0.0000 0.0000 4.0547 -7.3762 11.0952 10.0680 0.0000 0.0000 -6.8973 15.1370 11.1057 -6.3411 0.0000 -0.0000
 -0.9301 26.0086 37.9607 4.3574 -0.1528 -177.2501 0.5972 -1.6268 -0.5965 0.3876 -0.3102 -0.1393 1.6970 -1.9068 -0.5792 0.1741 0.2041 0.3798 5.9069 0.1996 -0.7354 1.4340 1.1546 1.7512 0.9220 6.8326 -3.0556 -2.9158 0.2105 0.0765 0.0000 0.0000 10.9790 -0.9287 21.8969 -12.1290 -0.0000 -0.0000 -0.0000 -0.0000 -0.0000 0.0000 -0.3216 -4.9569 0.0837 -0.1605 10.1707 3.0672 -0.0000 -0.0000 -14.1746 -5.3515 -15.2747 4.5130 -0.0000 -0.0000 -0.0000 0.0000 -0.0000 0.0000 5.7402 5.4417 -40.5605 11.6701 0.0000 0.0000 -9.5540 -9.0306 -1.2194 1.9067 0.0000 0.0000 4.1200 -7.3919 11.1050 10.0485 0.0000 0.0000 -6.9226 15.1492 11.0989 -6.3630 0.0000 -0.0000
 -0.9285 26.0492 37.9613 4.3466 -0.1620 -177.2336 0.5681 -1.6342 -0.5995 0.3780 -0.3060 -0.1401 1.6737 -1.8724 -0.6116 0.1719 0.2202 0.3626 5.9228 0.2126 -0.7482 1.4471 1.1769 1.7469 0.8665 6.9208 -3.0888 -2.8384 0.3390 0.0703 0.0000 0.0000 10.9652 -0.8764 21.8809 -12.0849 0.0000 -0.0000 0.0000 -0.0000 0.0000 0.0000 -0.3512 -4.9993 0.0384 -0.1539 10.1124 3.0582 -0.0000 -0.0000 -14.1531 -5.3314 -15.2725 4.5070 0.0000 -0.0000 -0.0000 0.0000 -0.0000 -0.0000 5.8469 5.3957 -40.6858 11.5544 0.0000 0.0000 -9.5149 -9.0728 -1.1273 1.8945 0.0000 0.0000 4.1759 -7.4074 11.1173 10.0387 0.0000 0.0000 -6.9448 15.1606 11.0822 -6.3882 0.0000 -0.0000
 -0.9273 26.0881 37.9619 4.3344 -0.1702 -177.2144 0.5382 -1.6416 -0.6016 0.3679 -0.3023 -0.1409 1.6531 -1.8392 -0.6418 0.1703 0.2360 0.3462 5.9380 0.2279 -0.7615 1.4598 1.1973 1.7378 0.8117 7.0107 -3.1230 -2.7717 0.4598 0.0602 0.0000 0.0000 10.9474 -0.8333 21.8568 -12.0494 -0.0000 0.0000 -0.0000 -0.0000 -0.0000 0.0000 -0.3733 -5.0453 -0.0071 -0.1521 10.0636 3.0444 -0.0000 -0.0000 -14.1317 -5.3069 -15.2662 4.5091 0.0000 -0.0000 -0.0000 0.0000 0.0000 0.0000 5.9480 5.3518 -40.8048 11.4422 0.0000 0.0000 -9.4781 -9.1127 -1.0427 1.8843 0.0000 0.0000 4.2232 -7.4221 11.1339 10.0369 0.0000 0.0000 -6.9656 15.1698 11.0579 -6.4141 0.0000 -0.0000
 -0.9268 26.1257 37.9621 4.3205 -0.1774 -177.1953 0.5079 -1.6483 -0.6042 0.3587 -0.2979 -0.1406 1.6327 -1.8093 -0.6688 0.1693 0.2518 0.3293 5.9531 0.2450 -0.7738 1.4718 1.2154 1.7252 0.7555 7.1033 -3.1550 -2.7150 0.5741 0.0465 0.0000 0.0000 10.9275 -0.7977 21.8243 -12.0234 -0.0000 -0.0000 0.0000 0.0000 0.0000 -0.0000 -0.3901 -5.0925 -0.0502 -0.1534 10.0208 3.0258 -0.0000 -0.0000 -14.1114 -5.2834 -15.2582 4.5185 0.0000 -0.0000 -0.0000 0.0000 0.0000 0.0000 6.0421 5.3111 -40.9134 11.3361 0.0000 0.0000 -9.4458 -9.1502 -0.9673 1.8764 0.0000 0.0000 4.2634 -7.4354 11.1541 10.0415 0.0000 0.0000 -6.9876 15.1755 11.0297 -6.4385 0.0000 -0.0000
 -0.9268 26.1623 37.9621 4.3049 -0.1850 -177.1793 0.4779 -1.6541 -0.6052 0.3484 -0.2952 -0.1415 1.6135 -1.7802 -0.6948 0.1683 0.2658 0.3143 5.9684 0.2633 -0.7833 1.4831 1.2307 1.7113 0.6961 7.1974 -3.1826 -2.6655 0.6857 0.0313 0.0000 0.0000 10.9044 -0.7696 21.7842 -12.0045 0.0000 -0.0000 -0.0000 -0.0000 0.0000 -0.0000 -0.4034 -5.1382 -0.0885 -0.1602 9.9809 3.0044 -0.0000 -0.0000 -14.0951 -5.2588 -15.2495 4.5369 -0.0000 0.0000 0.0000 0.0000 -0.0000 0.0000 6.1289 5.2721 -41.0062 11.2361 0.0000 0.0000 -9.4187 -9.1854 -0.9036 1.8705 0.0000 0.0000 4.2997 -7.4483 11.1820 10.0491 0.0000 0.0000 -7.0114 15.1773 10.9974 -6.4589 0.0000 -0.0000
